<mxfile host="app.diagrams.net" modified="2021-10-23T11:25:21.843Z" agent="5.0 (Macintosh; Intel Mac OS X 10_15_7) AppleWebKit/537.36 (KHTML, like Gecko) Chrome/93.0.4577.82 Safari/537.36" etag="lMSJs-TqQTvBGQ-EaZOM" version="15.5.8" type="github">
  <diagram id="C5RBs43oDa-KdzZeNtuy" name="Page-1">
    <mxGraphModel dx="815" dy="472" grid="1" gridSize="3" guides="1" tooltips="1" connect="1" arrows="1" fold="1" page="1" pageScale="1" pageWidth="827" pageHeight="1169" math="0" shadow="0">
      <root>
        <mxCell id="WIyWlLk6GJQsqaUBKTNV-0" />
        <mxCell id="WIyWlLk6GJQsqaUBKTNV-1" parent="WIyWlLk6GJQsqaUBKTNV-0" />
        <mxCell id="0CUeb5_88-cBfMUGa1II-21" value="" style="whiteSpace=wrap;html=1;aspect=fixed;" vertex="1" parent="WIyWlLk6GJQsqaUBKTNV-1">
          <mxGeometry x="294" y="84" width="80" height="80" as="geometry" />
        </mxCell>
        <mxCell id="0CUeb5_88-cBfMUGa1II-22" value="" style="whiteSpace=wrap;html=1;aspect=fixed;" vertex="1" parent="WIyWlLk6GJQsqaUBKTNV-1">
          <mxGeometry x="292" y="87" width="80" height="80" as="geometry" />
        </mxCell>
        <mxCell id="0CUeb5_88-cBfMUGa1II-23" value="" style="whiteSpace=wrap;html=1;aspect=fixed;" vertex="1" parent="WIyWlLk6GJQsqaUBKTNV-1">
          <mxGeometry x="290" y="90" width="80" height="80" as="geometry" />
        </mxCell>
        <mxCell id="0CUeb5_88-cBfMUGa1II-24" value="" style="whiteSpace=wrap;html=1;aspect=fixed;" vertex="1" parent="WIyWlLk6GJQsqaUBKTNV-1">
          <mxGeometry x="288" y="93" width="80" height="80" as="geometry" />
        </mxCell>
        <mxCell id="0CUeb5_88-cBfMUGa1II-25" value="" style="whiteSpace=wrap;html=1;aspect=fixed;" vertex="1" parent="WIyWlLk6GJQsqaUBKTNV-1">
          <mxGeometry x="285" y="96" width="80" height="80" as="geometry" />
        </mxCell>
        <mxCell id="0CUeb5_88-cBfMUGa1II-26" value="" style="whiteSpace=wrap;html=1;aspect=fixed;" vertex="1" parent="WIyWlLk6GJQsqaUBKTNV-1">
          <mxGeometry x="283" y="99" width="80" height="80" as="geometry" />
        </mxCell>
        <mxCell id="0CUeb5_88-cBfMUGa1II-27" value="" style="whiteSpace=wrap;html=1;aspect=fixed;" vertex="1" parent="WIyWlLk6GJQsqaUBKTNV-1">
          <mxGeometry x="281" y="102" width="80" height="80" as="geometry" />
        </mxCell>
        <mxCell id="0CUeb5_88-cBfMUGa1II-28" value="" style="whiteSpace=wrap;html=1;aspect=fixed;" vertex="1" parent="WIyWlLk6GJQsqaUBKTNV-1">
          <mxGeometry x="279" y="105" width="80" height="80" as="geometry" />
        </mxCell>
        <mxCell id="0CUeb5_88-cBfMUGa1II-29" value="" style="whiteSpace=wrap;html=1;aspect=fixed;" vertex="1" parent="WIyWlLk6GJQsqaUBKTNV-1">
          <mxGeometry x="276" y="108" width="80" height="80" as="geometry" />
        </mxCell>
        <mxCell id="0CUeb5_88-cBfMUGa1II-30" value="" style="whiteSpace=wrap;html=1;aspect=fixed;" vertex="1" parent="WIyWlLk6GJQsqaUBKTNV-1">
          <mxGeometry x="273" y="111" width="80" height="80" as="geometry" />
        </mxCell>
      </root>
    </mxGraphModel>
  </diagram>
</mxfile>
